<svg width="30" height="28" viewBox="0 0 30 28" fill="none" xmlns="http://www.w3.org/2000/svg">
<path d="M25.8889 26.2222H4.11111C2.39289 26.2222 1 24.8294 1 23.1111V4.44444C1 2.72622 2.39289 1.33333 4.11111 1.33333H19.6667C21.3849 1.33333 22.7778 2.72622 22.7778 4.44444V5.99999L25.8889 26.2222ZM25.8889 26.2222C24.1706 26.2222 22.7778 24.8294 22.7778 23.1111V5.99999L25.8889 26.2222ZM25.8889 26.2222C27.6072 26.2222 29 24.8294 29 23.1111V9.11111C29 7.39289 27.6072 5.99999 25.8889 5.99999H22.7778L25.8889 26.2222ZM16.5556 1.33333H10.3333H16.5556ZM7.22222 20H16.5556H7.22222ZM7.22222 7.55555H16.5556V13.7778H7.22222V7.55555Z" stroke="white" stroke-width="2" stroke-linecap="round" stroke-linejoin="round"/>
</svg>
